# xmcd CD database file generated by OrangeCD 5.0
#
# Track frame offsets:
#	182
#	16585
#	35862
#	50880
#	66245
#	78105
#	91085
#	106055
#	117625
#	130260
#
# Disc length: 1903 seconds
#
# Revision: 10
# Processed by: cddbd v1.4PL0 Copyright (c) Steve Scherf et al.
# Submitted via: OrangeCD 5.0
#
DISCID=7f076d0a
DTITLE=Tina Turner - Tina Turner Goes Country
DYEAR=1999
DGENRE=Pop/Rock
TTITLE0=Lay It Down
TTITLE1=Lovin' Him Was Easier
TTITLE2=Good Hearted Woman
TTITLE3=If This Was Our Last Time
TTITLE4=Stand By Your Man
TTITLE5=Freedom To Stay
TTITLE6=We Had It All
TTITLE7=Soul Deep
TTITLE8=If It's Alright With You
TTITLE9=You Ain't Woman Enough To Take My Man
EXTD=
EXTT0=
EXTT1=
EXTT2=
EXTT3=
EXTT4=
EXTT5=
EXTT6=
EXTT7=
EXTT8=
EXTT9=
PLAYORDER=
